<svg width="88" height="42" viewBox="0 0 88 42" fill="none" xmlns="http://www.w3.org/2000/svg">
<g filter="url(#filter0_d_1_468)">
<rect x="2" y="1" width="84" height="38" rx="6" fill="white"/>
<rect x="2.5" y="1.5" width="83" height="37" rx="5.5" stroke="#D1D5DB"/>
<path d="M17 13C17 12.4477 17.4477 12 18 12H20.1529C20.6417 12 21.0589 12.3534 21.1393 12.8356L21.8786 17.2715C21.9508 17.7045 21.7321 18.134 21.3394 18.3303L19.7913 19.1044C20.9076 21.8783 23.1217 24.0924 25.8956 25.2087L26.6697 23.6606C26.866 23.2679 27.2955 23.0492 27.7285 23.1214L32.1644 23.8607C32.6466 23.9411 33 24.3583 33 24.8471V27C33 27.5523 32.5523 28 32 28H30C22.8203 28 17 22.1797 17 15V13Z" fill="#9CA3AF"/>
<path d="M52.5753 18.1293H51.0241C50.9645 17.7978 50.8535 17.5062 50.6911 17.2543C50.5286 17.0024 50.3298 16.7886 50.0945 16.6129C49.8591 16.4373 49.5956 16.3047 49.304 16.2152C49.0156 16.1257 48.709 16.081 48.3842 16.081C47.7976 16.081 47.2723 16.2285 46.8082 16.5234C46.3475 16.8184 45.983 17.2509 45.7145 17.821C45.4493 18.3911 45.3168 19.0871 45.3168 19.9091C45.3168 20.7377 45.4493 21.437 45.7145 22.0071C45.983 22.5772 46.3492 23.008 46.8132 23.2997C47.2772 23.5914 47.7992 23.7372 48.3793 23.7372C48.7008 23.7372 49.0057 23.6941 49.294 23.608C49.5857 23.5185 49.8492 23.3875 50.0845 23.2152C50.3198 23.0429 50.5187 22.8324 50.6811 22.5838C50.8468 22.3319 50.9612 22.0436 51.0241 21.7188L52.5753 21.7237C52.4924 22.2242 52.3317 22.6849 52.093 23.1058C51.8577 23.5234 51.5545 23.8847 51.1832 24.1896C50.8153 24.4912 50.3944 24.7249 49.9205 24.8906C49.4465 25.0563 48.9295 25.1392 48.3693 25.1392C47.4877 25.1392 46.7022 24.9304 46.0128 24.5128C45.3234 24.0919 44.7798 23.4903 44.3821 22.7081C43.9877 21.9259 43.7905 20.9929 43.7905 19.9091C43.7905 18.822 43.9893 17.889 44.3871 17.1101C44.7848 16.3279 45.3284 15.728 46.0178 15.3104C46.7071 14.8894 47.491 14.679 48.3693 14.679C48.9096 14.679 49.4134 14.7569 49.8807 14.9126C50.3513 15.0651 50.7739 15.2905 51.1484 15.5888C51.523 15.8838 51.8329 16.245 52.0781 16.6726C52.3234 17.0968 52.4891 17.5824 52.5753 18.1293ZM56.5165 25.169C56.0326 25.169 55.5951 25.0795 55.204 24.9006C54.8129 24.7183 54.503 24.4548 54.2743 24.1101C54.0489 23.7654 53.9363 23.3428 53.9363 22.8423C53.9363 22.4115 54.0191 22.0568 54.1848 21.7784C54.3506 21.5 54.5743 21.2796 54.856 21.1172C55.1377 20.9548 55.4526 20.8321 55.8006 20.7493C56.1486 20.6664 56.5033 20.6035 56.8645 20.5604C57.3219 20.5073 57.6931 20.4643 57.9782 20.4311C58.2632 20.3946 58.4703 20.3366 58.5996 20.2571C58.7289 20.1776 58.7935 20.0483 58.7935 19.8693V19.8345C58.7935 19.4003 58.6709 19.0639 58.4256 18.8253C58.1837 18.5866 57.8224 18.4673 57.3418 18.4673C56.8413 18.4673 56.4469 18.5784 56.1586 18.8004C55.8735 19.0192 55.6763 19.2628 55.5669 19.5312L54.1699 19.2131C54.3356 18.7491 54.5776 18.3745 54.8958 18.0895C55.2173 17.8011 55.5868 17.5923 56.0044 17.4631C56.4221 17.3305 56.8612 17.2642 57.3219 17.2642C57.6268 17.2642 57.95 17.3007 58.2914 17.3736C58.6361 17.4432 58.9576 17.5724 59.2559 17.7614C59.5575 17.9503 59.8044 18.2204 59.9966 18.5717C60.1889 18.9197 60.285 19.3722 60.285 19.929V25H58.8333V23.956H58.7736C58.6775 24.1482 58.5333 24.3371 58.3411 24.5227C58.1489 24.7083 57.9019 24.8625 57.6003 24.9851C57.2987 25.1077 56.9374 25.169 56.5165 25.169ZM56.8397 23.9759C57.2507 23.9759 57.602 23.8946 57.8936 23.7322C58.1886 23.5698 58.4123 23.3577 58.5648 23.0959C58.7206 22.8307 58.7985 22.5473 58.7985 22.2457V21.2614C58.7454 21.3144 58.6427 21.3641 58.4902 21.4105C58.3411 21.4536 58.1704 21.4917 57.9782 21.5249C57.7859 21.5547 57.5987 21.5829 57.4164 21.6094C57.2341 21.6326 57.0816 21.6525 56.959 21.669C56.6706 21.7055 56.4071 21.7668 56.1685 21.853C55.9332 21.9392 55.7443 22.0634 55.6017 22.2259C55.4625 22.3849 55.3929 22.5971 55.3929 22.8622C55.3929 23.2301 55.5288 23.5085 55.8006 23.6974C56.0724 23.883 56.4187 23.9759 56.8397 23.9759ZM63.7514 14.8182V25H62.2649V14.8182H63.7514ZM67.2377 14.8182V25H65.7512V14.8182H67.2377Z" fill="#374151"/>
</g>
<defs>
<filter id="filter0_d_1_468" x="0" y="0" width="88" height="42" filterUnits="userSpaceOnUse" color-interpolation-filters="sRGB">
<feFlood flood-opacity="0" result="BackgroundImageFix"/>
<feColorMatrix in="SourceAlpha" type="matrix" values="0 0 0 0 0 0 0 0 0 0 0 0 0 0 0 0 0 0 127 0" result="hardAlpha"/>
<feOffset dy="1"/>
<feGaussianBlur stdDeviation="1"/>
<feColorMatrix type="matrix" values="0 0 0 0 0 0 0 0 0 0 0 0 0 0 0 0 0 0 0.05 0"/>
<feBlend mode="normal" in2="BackgroundImageFix" result="effect1_dropShadow_1_468"/>
<feBlend mode="normal" in="SourceGraphic" in2="effect1_dropShadow_1_468" result="shape"/>
</filter>
</defs>
</svg>
